<?xml version="1.0" encoding="UTF-8"?><svg id="Capa_1" xmlns="http://www.w3.org/2000/svg" viewBox="0 0 1800 1800"><defs><style>.cls-1{fill:#7dd3d2;}</style></defs><polygon class="cls-1" points="317.8 1027.38 504.32 842.87 381.6 842.87 205.99 1027.72 205.99 842.87 112.56 842.87 112.56 1291.51 205.99 1291.51 205.99 1141.45 251.73 1095.67 391.77 1291.51 513.88 1291.51 317.8 1027.38"/><polygon class="cls-1" points="1100.49 1210.85 848.88 1210.85 848.88 1095.49 1069.66 1095.49 1069.66 1017.58 848.88 1017.58 848.88 922.31 1089.39 922.31 1089.39 842.87 756.06 842.87 756.06 1291.51 1100.49 1291.51 1100.49 1210.85"/><polygon class="cls-1" points="1319.27 842.87 1319.27 922.31 1455.87 922.31 1455.87 1291.51 1551.46 1291.51 1551.46 922.31 1687.44 922.31 1687.44 842.87 1319.27 842.87"/><polygon class="cls-1" points="679.19 535.4 832.47 731.95 968.32 731.95 841.59 557.67 840.43 556.07 791.7 489.07 968.31 278.74 822.85 278.74 728.26 401.82 679.19 465.67 679.19 278.74 561.38 278.74 561.38 731.95 679.19 731.95 679.19 535.4"/><polygon class="cls-1" points="834.26 489.07 882.98 556.07 1010.87 556.07 1010.87 731.95 1131.42 731.95 1131.42 556.07 1297.75 556.07 1297.75 434.36 1131.42 434.36 1131.42 278.74 1010.87 278.74 1010.87 434.36 880.52 434.36 834.26 489.07"/><polygon class="cls-1" points="519.11 1403.7 477.15 1489.23 434.78 1403.7 428.55 1403.7 412.12 1518.52 428.69 1518.52 438.41 1447.15 473.85 1518.52 480.34 1518.52 515.34 1447.74 525.11 1518.52 541.84 1518.52 525.31 1403.7 519.11 1403.7"/><polygon class="cls-1" points="617.46 1518.52 685.37 1518.52 685.37 1501.88 634.32 1501.88 634.32 1465.11 685.37 1465.11 685.37 1448.46 634.32 1448.46 634.32 1420.35 685.81 1420.35 685.81 1403.7 617.46 1403.7 617.46 1518.52"/><path class="cls-1" d="M821.23,1407.8c-7.75-2.76-19.66-4.1-36.44-4.1h-25.56v114.82h37.61c13.98,0,25.09-2.11,33.02-6.27,8-4.19,14.58-10.76,19.56-19.52,4.95-8.7,7.45-18.88,7.45-30.26,0-13.16-3.16-24.69-9.4-34.26-6.28-9.65-15.11-16.51-26.25-20.42Zm12.14,78.58c-4.29,6.32-10.26,10.77-17.76,13.21-5.5,1.77-15.73,2.66-30.38,2.66h-9.59v-81.91h4.71c15.26,0,26.3,1,32.79,2.97,8.37,2.55,14.97,7.3,19.63,14.13,4.72,6.9,7.11,15.39,7.11,25.22s-2.2,17.32-6.51,23.72Z"/><rect class="cls-1" x="931.03" y="1403.7" width="16.86" height="114.82"/><path class="cls-1" d="M1120.96,1488.13c-9.75,11.34-21.52,16.85-35.99,16.85-13.17,0-23.75-4.08-32.35-12.46-8.57-8.36-12.75-18.53-12.75-31.08,0-8.21,1.92-15.68,5.7-22.21,3.78-6.53,9.19-11.81,16.08-15.69,13.25-7.46,30.29-7.6,43.23-1.39,6.18,2.96,11.55,7.38,15.97,13.14l1.81,2.38,13.26-10.17-1.7-2.35c-5.48-7.63-12.63-13.63-21.23-17.84-8.55-4.2-18.26-6.34-28.84-6.34-17.55,0-32.38,5.78-44.08,17.16-11.72,11.41-17.65,25.66-17.65,42.35,0,15.81,4.89,29.51,14.56,40.73,11.54,13.3,27.46,20.04,47.32,20.04,10.41,0,19.97-2,28.44-5.94,8.5-3.95,15.71-9.63,21.4-16.88l1.89-2.4-13.25-10.05-1.83,2.14Z"/><path class="cls-1" d="M1254.16,1403.7l-54.25,114.82h18.75l16.95-35.81h43.11l17.12,35.81h18.33l-53.55-114.82h-6.46Zm-10.74,62.52l13.91-29.4,13.85,29.4h-27.76Z"/><polygon class="cls-1" points="1400.81 1403.7 1383.95 1403.7 1383.95 1518.52 1442.68 1518.52 1442.68 1502.03 1400.81 1502.03 1400.81 1403.7"/></svg>